<svg width="111" height="21" viewBox="0 0 111 21" fill="none" xmlns="http://www.w3.org/2000/svg">
<path d="M11.6387 15.1875C11.6387 15.8529 11.5111 16.4772 11.2559 17.0605C11.0098 17.6439 10.668 18.1543 10.2305 18.5918C9.79297 19.0293 9.27799 19.3757 8.68555 19.6309C8.10221 19.877 7.47786 20 6.8125 20H0.605469V0.394531H6.8125C7.47786 0.394531 8.10221 0.522135 8.68555 0.777344C9.27799 1.02344 9.79297 1.36523 10.2305 1.80273C10.668 2.24023 11.0098 2.75521 11.2559 3.34766C11.5111 3.93099 11.6387 4.55534 11.6387 5.2207V5.41211C11.6387 5.87695 11.5749 6.32357 11.4473 6.75195C11.3288 7.17122 11.1556 7.56315 10.9277 7.92773C10.6999 8.29232 10.431 8.625 10.1211 8.92578C9.8112 9.21745 9.46484 9.46354 9.08203 9.66406C9.46484 9.86458 9.8112 10.1152 10.1211 10.416C10.431 10.7077 10.6999 11.0404 10.9277 11.4141C11.1556 11.7786 11.3288 12.1751 11.4473 12.6035C11.5749 13.0228 11.6387 13.4648 11.6387 13.9297V15.1875ZM9.875 13.6426C9.875 13.2051 9.79297 12.7995 9.62891 12.4258C9.46484 12.043 9.23698 11.7103 8.94531 11.4277C8.66276 11.1452 8.33008 10.9219 7.94727 10.7578C7.57357 10.5938 7.16797 10.5117 6.73047 10.5117H2.36914V18.3184H6.73047C7.16797 18.3184 7.57357 18.2363 7.94727 18.0723C8.33008 17.9082 8.66276 17.6849 8.94531 17.4023C9.23698 17.1198 9.46484 16.7917 9.62891 16.418C9.79297 16.0352 9.875 15.625 9.875 15.1875V13.6426ZM9.875 5.2207C9.875 4.7832 9.79297 4.3776 9.62891 4.00391C9.46484 3.62109 9.23698 3.28841 8.94531 3.00586C8.66276 2.71419 8.33008 2.48633 7.94727 2.32227C7.57357 2.1582 7.16797 2.07617 6.73047 2.07617H2.36914V8.83008H6.73047C7.16797 8.83008 7.57357 8.74805 7.94727 8.58398C8.33008 8.41992 8.66276 8.19661 8.94531 7.91406C9.23698 7.6224 9.46484 7.28971 9.62891 6.91602C9.79297 6.5332 9.875 6.12305 9.875 5.68555V5.2207ZM25.7617 15.4609C25.7617 16.1263 25.6341 16.7507 25.3789 17.334C25.1328 17.9173 24.791 18.4277 24.3535 18.8652C23.916 19.3027 23.4056 19.6491 22.8223 19.9043C22.2389 20.1504 21.6146 20.2734 20.9492 20.2734H19.5547C18.8893 20.2734 18.2604 20.1504 17.668 19.9043C17.0846 19.6491 16.5742 19.3027 16.1367 18.8652C15.6992 18.4277 15.3529 17.9173 15.0977 17.334C14.8516 16.7507 14.7285 16.1263 14.7285 15.4609V0.394531H16.4922V15.4609C16.4922 15.8984 16.5742 16.3086 16.7383 16.6914C16.9023 17.0651 17.1257 17.3978 17.4082 17.6895C17.6999 17.972 18.0326 18.1953 18.4062 18.3594C18.7891 18.5234 19.1992 18.6055 19.6367 18.6055H20.8672C21.3047 18.6055 21.7103 18.5234 22.084 18.3594C22.4668 18.1953 22.7995 17.972 23.082 17.6895C23.3646 17.3978 23.5879 17.0651 23.752 16.6914C23.916 16.3086 23.998 15.8984 23.998 15.4609V0.394531H25.7617V15.4609ZM35.127 10.6211V20H33.3633V10.6484L28.291 0.394531H30.1914L34.2246 8.54297L38.2578 0.394531H40.1582L35.127 10.6211ZM55.6484 20.2734C54.8555 20.2734 54.1628 20.1048 53.5703 19.7676C52.987 19.4303 52.5221 18.9746 52.1758 18.4004C51.7201 18.9746 51.1595 19.4303 50.4941 19.7676C49.8288 20.1048 49.1087 20.2734 48.334 20.2734H47.5C46.8346 20.2734 46.2057 20.1504 45.6133 19.9043C45.0299 19.6491 44.5195 19.3027 44.082 18.8652C43.6445 18.4277 43.2982 17.9173 43.043 17.334C42.7969 16.7507 42.6738 16.1263 42.6738 15.4609V14.3945C42.6738 13.9297 42.7331 13.4876 42.8516 13.0684C42.9792 12.64 43.1569 12.2435 43.3848 11.8789C43.6126 11.5143 43.8815 11.1862 44.1914 10.8945C44.5013 10.5938 44.8477 10.3431 45.2305 10.1426C44.8477 9.94206 44.5013 9.69596 44.1914 9.4043C43.8815 9.10352 43.6126 8.77083 43.3848 8.40625C43.1569 8.04167 42.9792 7.64974 42.8516 7.23047C42.7331 6.80208 42.6738 6.35547 42.6738 5.89062V4.93359C42.6738 4.26823 42.7969 3.64388 43.043 3.06055C43.2982 2.47721 43.6445 1.9668 44.082 1.5293C44.5195 1.0918 45.0299 0.75 45.6133 0.503906C46.2057 0.248698 46.8346 0.121094 47.5 0.121094H48.334C48.9993 0.121094 49.6237 0.248698 50.207 0.503906C50.7904 0.75 51.3008 1.0918 51.7383 1.5293C52.1758 1.9668 52.5176 2.47721 52.7637 3.06055C53.0189 3.64388 53.1465 4.26823 53.1465 4.93359V5.07031L51.3828 5.35742V4.93359C51.3828 4.49609 51.3008 4.09049 51.1367 3.7168C50.9727 3.33398 50.7493 3.0013 50.4668 2.71875C50.1842 2.4362 49.8516 2.21289 49.4688 2.04883C49.0951 1.88477 48.6895 1.80273 48.252 1.80273H47.582C47.1445 1.80273 46.7344 1.88477 46.3516 2.04883C45.9779 2.21289 45.6452 2.4362 45.3535 2.71875C45.071 3.0013 44.8477 3.33398 44.6836 3.7168C44.5195 4.09049 44.4375 4.49609 44.4375 4.93359V6.16406C44.4375 6.60156 44.5195 7.01172 44.6836 7.39453C44.8477 7.76823 45.071 8.10091 45.3535 8.39258C45.6452 8.67513 45.9779 8.89844 46.3516 9.0625C46.7344 9.22656 47.1445 9.30859 47.582 9.30859H51.3828V7.51758L53.1465 7.23047V9.28125H55.8672V10.9492H53.1465V15.666C53.1647 16.0762 53.2285 16.459 53.3379 16.8145C53.4473 17.1699 53.6068 17.4844 53.8164 17.7578C54.0352 18.0221 54.304 18.2318 54.623 18.3867C54.9421 18.5326 55.3112 18.6055 55.7305 18.6055H56.1406L55.8945 20.2734H55.6484ZM48.252 18.6055C48.6712 18.6055 49.0677 18.528 49.4414 18.373C49.8151 18.2181 50.1387 18.0039 50.4121 17.7305C50.6947 17.457 50.9225 17.138 51.0957 16.7734C51.2689 16.4089 51.3646 16.0169 51.3828 15.5977V10.9902H47.582C47.1445 10.9902 46.7344 11.0723 46.3516 11.2363C45.9779 11.4004 45.6452 11.6237 45.3535 11.9062C45.071 12.1888 44.8477 12.5215 44.6836 12.9043C44.5195 13.278 44.4375 13.6836 44.4375 14.1211V15.4609C44.4375 15.8984 44.5195 16.3086 44.6836 16.6914C44.8477 17.0651 45.071 17.3978 45.3535 17.6895C45.6452 17.972 45.9779 18.1953 46.3516 18.3594C46.7344 18.5234 47.1445 18.6055 47.582 18.6055H48.252ZM71.0977 15.4609C71.0977 16.1263 70.9609 16.7507 70.6875 17.334C70.4232 17.9173 70.0632 18.4277 69.6074 18.8652C69.1608 19.3027 68.6367 19.6491 68.0352 19.9043C67.4427 20.1504 66.8138 20.2734 66.1484 20.2734H64.7402C64.0749 20.2734 63.4414 20.1504 62.8398 19.9043C62.2474 19.6491 61.7233 19.3027 61.2676 18.8652C60.821 18.4277 60.4609 17.9173 60.1875 17.334C59.9232 16.7507 59.791 16.1263 59.791 15.4609V14.6816L61.5547 14.3945V15.4609C61.5547 15.8984 61.6413 16.3086 61.8145 16.6914C61.9967 17.0651 62.2383 17.3978 62.5391 17.6895C62.8398 17.972 63.1862 18.1953 63.5781 18.3594C63.9792 18.5234 64.3984 18.6055 64.8359 18.6055H66.0664C66.5039 18.6055 66.9186 18.5234 67.3105 18.3594C67.7025 18.1953 68.0488 17.972 68.3496 17.6895C68.6504 17.3978 68.8874 17.0651 69.0605 16.6914C69.2428 16.3086 69.334 15.8984 69.334 15.4609V14.873C69.334 14.1986 69.2018 13.638 68.9375 13.1914C68.6732 12.7448 68.3223 12.3665 67.8848 12.0566C67.4473 11.7376 66.9505 11.4688 66.3945 11.25C65.8477 11.0312 65.2826 10.8125 64.6992 10.5938C64.1159 10.375 63.5462 10.1335 62.9902 9.86914C62.4434 9.60482 61.9512 9.27669 61.5137 8.88477C61.0762 8.48372 60.7253 7.99609 60.4609 7.42188C60.1966 6.84766 60.0645 6.14128 60.0645 5.30273V4.93359C60.0645 4.26823 60.1875 3.64388 60.4336 3.06055C60.6888 2.47721 61.0352 1.9668 61.4727 1.5293C61.9102 1.0918 62.4206 0.75 63.0039 0.503906C63.5964 0.248698 64.2253 0.121094 64.8906 0.121094H66.1484C66.8138 0.121094 67.4382 0.248698 68.0215 0.503906C68.6048 0.75 69.1152 1.0918 69.5527 1.5293C69.9902 1.9668 70.332 2.47721 70.5781 3.06055C70.8333 3.64388 70.9609 4.26823 70.9609 4.93359V5.43945L69.1973 5.72656V4.93359C69.1973 4.49609 69.1152 4.09049 68.9512 3.7168C68.7871 3.33398 68.5638 3.0013 68.2812 2.71875C67.9987 2.4362 67.666 2.21289 67.2832 2.04883C66.9095 1.88477 66.5039 1.80273 66.0664 1.80273H64.9727C64.5352 1.80273 64.125 1.88477 63.7422 2.04883C63.3685 2.21289 63.0358 2.4362 62.7441 2.71875C62.4616 3.0013 62.2383 3.33398 62.0742 3.7168C61.9102 4.09049 61.8281 4.49609 61.8281 4.93359V5.30273C61.8281 5.93164 61.9603 6.46029 62.2246 6.88867C62.4889 7.31706 62.8398 7.6862 63.2773 7.99609C63.7148 8.29688 64.207 8.5612 64.7539 8.78906C65.3099 9.00781 65.8796 9.23568 66.4629 9.47266C67.0462 9.70052 67.6113 9.95573 68.1582 10.2383C68.7142 10.5117 69.2109 10.8535 69.6484 11.2637C70.0859 11.6647 70.4368 12.1569 70.7012 12.7402C70.9655 13.3236 71.0977 14.0345 71.0977 14.873V15.4609ZM74.8984 20V0.394531H85.9316V2.07617H76.6621V9.36328H84.168V11.0449H76.6621V18.3184H85.9316V20H74.8984ZM89.0215 20V0.394531H90.7852V18.3184H98.291V20H89.0215ZM100.807 20V0.394531H102.57V18.3184H110.076V20H100.807Z" fill="white"/>
</svg>
