<svg width="930" height="741" viewBox="0 0 930 741" fill="none" xmlns="http://www.w3.org/2000/svg">
<g filter="url(#filter0_d_163_426)">
<path d="M11.5075 605.18C13.165 604.01 15.0175 603.087 17.065 602.412C19.1125 601.737 21.2575 601.4 23.5 601.4C25.7425 601.4 27.8875 601.737 29.935 602.412C31.9825 603.087 33.835 604.01 35.4925 605.18C36.63 603.95 37.5156 602.555 38.1494 600.995C38.7831 599.435 39.1 597.77 39.1 596C39.1 592.01 37.5806 588.612 34.5419 585.807C31.5031 583.003 27.8225 581.6 23.5 581.6C19.1775 581.6 15.4969 583.003 12.4581 585.807C9.41938 588.612 7.9 592.01 7.9 596C7.9 597.77 8.21687 599.435 8.85063 600.995C9.48438 602.555 10.37 603.95 11.5075 605.18ZM23.5 597.8C21.5825 597.8 19.9656 597.192 18.6494 595.977C17.3331 594.762 16.675 593.27 16.675 591.5C16.675 589.73 17.3331 588.238 18.6494 587.023C19.9656 585.808 21.5825 585.2 23.5 585.2C25.4175 585.2 27.0344 585.808 28.3506 587.023C29.6669 588.238 30.325 589.73 30.325 591.5C30.325 593.27 29.6669 594.762 28.3506 595.977C27.0344 597.192 25.4175 597.8 23.5 597.8ZM23.5 614C20.8025 614 18.2675 613.527 15.895 612.582C13.5225 611.637 11.4588 610.355 9.70375 608.735C7.94875 607.115 6.55938 605.21 5.53563 603.02C4.51187 600.83 4 598.49 4 596C4 593.51 4.51187 591.17 5.53563 588.98C6.55938 586.79 7.94875 584.885 9.70375 583.265C11.4588 581.645 13.5225 580.363 15.895 579.418C18.2675 578.472 20.8025 578 23.5 578C26.1975 578 28.7325 578.472 31.105 579.418C33.4775 580.363 35.5413 581.645 37.2963 583.265C39.0513 584.885 40.4406 586.79 41.4644 588.98C42.4881 591.17 43 593.51 43 596C43 598.49 42.4881 600.83 41.4644 603.02C40.4406 605.21 39.0513 607.115 37.2963 608.735C35.5413 610.355 33.4775 611.637 31.105 612.582C28.7325 613.527 26.1975 614 23.5 614Z" fill="#474747"/>
</g>
<g filter="url(#filter1_d_163_426)">
<path d="M894.508 325.18C896.165 324.01 898.018 323.087 900.065 322.412C902.113 321.737 904.258 321.4 906.5 321.4C908.743 321.4 910.888 321.737 912.935 322.412C914.983 323.087 916.835 324.01 918.493 325.18C919.63 323.95 920.516 322.555 921.149 320.995C921.783 319.435 922.1 317.77 922.1 316C922.1 312.01 920.581 308.612 917.542 305.807C914.503 303.003 910.823 301.6 906.5 301.6C902.178 301.6 898.497 303.003 895.458 305.807C892.419 308.612 890.9 312.01 890.9 316C890.9 317.77 891.217 319.435 891.851 320.995C892.484 322.555 893.37 323.95 894.508 325.18ZM906.5 317.8C904.583 317.8 902.966 317.192 901.649 315.977C900.333 314.762 899.675 313.27 899.675 311.5C899.675 309.73 900.333 308.238 901.649 307.023C902.966 305.808 904.583 305.2 906.5 305.2C908.418 305.2 910.034 305.808 911.351 307.023C912.667 308.238 913.325 309.73 913.325 311.5C913.325 313.27 912.667 314.762 911.351 315.977C910.034 317.192 908.418 317.8 906.5 317.8ZM906.5 334C903.803 334 901.268 333.527 898.895 332.582C896.522 331.637 894.459 330.355 892.704 328.735C890.949 327.115 889.559 325.21 888.536 323.02C887.512 320.83 887 318.49 887 316C887 313.51 887.512 311.17 888.536 308.98C889.559 306.79 890.949 304.885 892.704 303.265C894.459 301.645 896.522 300.363 898.895 299.418C901.268 298.472 903.803 298 906.5 298C909.198 298 911.733 298.472 914.105 299.418C916.478 300.363 918.541 301.645 920.296 303.265C922.051 304.885 923.441 306.79 924.464 308.98C925.488 311.17 926 313.51 926 316C926 318.49 925.488 320.83 924.464 323.02C923.441 325.21 922.051 327.115 920.296 328.735C918.541 330.355 916.478 331.637 914.105 332.582C911.733 333.527 909.198 334 906.5 334Z" fill="#474747"/>
</g>
<g filter="url(#filter2_d_163_426)">
<path d="M52 560H528C533.523 560 538 564.477 538 570V723C538 728.523 533.523 733 528 733H62C56.4771 733 52 728.523 52 723V560Z" fill="#242424"/>
</g>
<g filter="url(#filter3_d_163_426)">
<path d="M392 290C392 284.477 396.477 280 402 280H878V443C878 448.523 873.523 453 868 453H402C396.477 453 392 448.523 392 443V290Z" fill="#363535"/>
</g>
<g filter="url(#filter4_d_163_426)">
<path d="M81 0H558C563.523 0 568 4.47715 568 10V163C568 168.523 563.523 173 558 173H91C85.4771 173 81 168.523 81 163V0Z" fill="#545454" fill-opacity="0.18" shape-rendering="crispEdges"/>
</g>
<g filter="url(#filter5_d_163_426)">
<path d="M62 4.76837e-07H81V18L62 4.76837e-07Z" fill="#242424"/>
</g>
<g filter="url(#filter6_d_163_426)">
<path d="M897 280L878 298V280H897Z" fill="#363535"/>
</g>
<g filter="url(#filter7_d_163_426)">
<path d="M23 560H52V584L23 560Z" fill="#242424"/>
</g>
<g filter="url(#filter8_d_163_426)">
<rect x="130" y="30" width="176" height="18" rx="9" fill="#3B3B3B" fill-opacity="0.24" shape-rendering="crispEdges"/>
</g>
<g filter="url(#filter9_d_163_426)">
<rect x="130" y="66" width="311" height="23" rx="10" fill="#545454" fill-opacity="0.18" shape-rendering="crispEdges"/>
</g>
<g filter="url(#filter10_d_163_426)">
<rect x="130" y="107" width="262" height="18" rx="9" fill="#505050" fill-opacity="0.26" shape-rendering="crispEdges"/>
</g>
<g filter="url(#filter11_d_163_426)">
<rect x="500" y="155" width="48" height="12" rx="6" fill="#3D3D3D" fill-opacity="0.39" shape-rendering="crispEdges"/>
</g>
<g filter="url(#filter12_d_163_426)">
<rect x="411" y="429" width="60" height="12" rx="6" fill="#3D3D3D"/>
</g>
<g filter="url(#filter13_d_163_426)">
<rect x="615" y="304" width="234" height="12" rx="6" fill="#505050" fill-opacity="0.26" shape-rendering="crispEdges"/>
</g>
<g filter="url(#filter14_d_163_426)">
<rect x="752" y="328" width="97" height="12" rx="6" fill="#505050" fill-opacity="0.26" shape-rendering="crispEdges"/>
</g>
<g filter="url(#filter15_d_163_426)">
<rect x="693" y="352" width="156" height="12" rx="6" fill="#494848"/>
</g>
<g filter="url(#filter16_d_163_426)">
<rect x="528" y="375" width="321" height="12" rx="6" fill="#3F3F3F"/>
</g>
<g filter="url(#filter17_d_163_426)">
<rect x="624" y="393" width="225" height="12" rx="6" fill="#464646"/>
</g>
<g filter="url(#filter18_d_163_426)">
<rect x="81" y="584" width="186" height="24" rx="10" fill="#3D3D3D" fill-opacity="0.39" shape-rendering="crispEdges"/>
</g>
<g filter="url(#filter19_d_163_426)">
<rect x="81" y="626" width="311" height="18" rx="9" fill="#545454" fill-opacity="0.18" shape-rendering="crispEdges"/>
</g>
<g filter="url(#filter20_d_163_426)">
<rect x="81" y="667" width="49" height="18" rx="9" fill="#363535"/>
</g>
<g filter="url(#filter21_d_163_426)">
<path d="M42.5063 35.925C43.8875 34.7875 45.4313 33.8906 47.1375 33.2344C48.8438 32.5781 50.6313 32.25 52.5 32.25C54.3687 32.25 56.1563 32.5781 57.8625 33.2344C59.5688 33.8906 61.1125 34.7875 62.4937 35.925C63.4417 34.7292 64.1797 33.3729 64.7078 31.8563C65.2359 30.3396 65.5 28.7208 65.5 27C65.5 23.1208 64.2339 19.8177 61.7016 17.0906C59.1693 14.3635 56.1021 13 52.5 13C48.8979 13 45.8307 14.3635 43.2984 17.0906C40.7661 19.8177 39.5 23.1208 39.5 27C39.5 28.7208 39.7641 30.3396 40.2922 31.8563C40.8203 33.3729 41.5583 34.7292 42.5063 35.925ZM52.5 28.75C50.9021 28.75 49.5547 28.1594 48.4578 26.9781C47.3609 25.7969 46.8125 24.3458 46.8125 22.625C46.8125 20.9042 47.3609 19.4531 48.4578 18.2719C49.5547 17.0906 50.9021 16.5 52.5 16.5C54.0979 16.5 55.4453 17.0906 56.5422 18.2719C57.6391 19.4531 58.1875 20.9042 58.1875 22.625C58.1875 24.3458 57.6391 25.7969 56.5422 26.9781C55.4453 28.1594 54.0979 28.75 52.5 28.75ZM52.5 44.5C50.2521 44.5 48.1396 44.0406 46.1625 43.1219C44.1854 42.2031 42.4656 40.9563 41.0031 39.3813C39.5406 37.8063 38.3828 35.9542 37.5297 33.825C36.6766 31.6958 36.25 29.4208 36.25 27C36.25 24.5792 36.6766 22.3042 37.5297 20.175C38.3828 18.0458 39.5406 16.1937 41.0031 14.6187C42.4656 13.0437 44.1854 11.7969 46.1625 10.8781C48.1396 9.95937 50.2521 9.5 52.5 9.5C54.7479 9.5 56.8604 9.95937 58.8375 10.8781C60.8146 11.7969 62.5344 13.0437 63.9969 14.6187C65.4594 16.1937 66.6172 18.0458 67.4703 20.175C68.3234 22.3042 68.75 24.5792 68.75 27C68.75 29.4208 68.3234 31.6958 67.4703 33.825C66.6172 35.9542 65.4594 37.8063 63.9969 39.3813C62.5344 40.9563 60.8146 42.2031 58.8375 43.1219C56.8604 44.0406 54.7479 44.5 52.5 44.5Z" fill="#474747"/>
</g>
<g filter="url(#filter22_d_163_426)">
<line y1="-0.5" x2="223.488" y2="-0.5" transform="matrix(0.885165 0.465277 -0.491475 0.870892 440.264 175.579)" stroke="#242424"/>
</g>
<g filter="url(#filter23_d_163_426)">
<line y1="-0.5" x2="249.754" y2="-0.5" transform="matrix(-0.912301 0.40952 -0.434146 -0.900843 535.646 455.142)" stroke="#363535"/>
</g>
<defs>
<filter id="filter0_d_163_426" x="0" y="578" width="47" height="44" filterUnits="userSpaceOnUse" color-interpolation-filters="sRGB">
<feFlood flood-opacity="0" result="BackgroundImageFix"/>
<feColorMatrix in="SourceAlpha" type="matrix" values="0 0 0 0 0 0 0 0 0 0 0 0 0 0 0 0 0 0 127 0" result="hardAlpha"/>
<feOffset dy="4"/>
<feGaussianBlur stdDeviation="2"/>
<feComposite in2="hardAlpha" operator="out"/>
<feColorMatrix type="matrix" values="0 0 0 0 0 0 0 0 0 0 0 0 0 0 0 0 0 0 0.25 0"/>
<feBlend mode="normal" in2="BackgroundImageFix" result="effect1_dropShadow_163_426"/>
<feBlend mode="normal" in="SourceGraphic" in2="effect1_dropShadow_163_426" result="shape"/>
</filter>
<filter id="filter1_d_163_426" x="883" y="298" width="47" height="44" filterUnits="userSpaceOnUse" color-interpolation-filters="sRGB">
<feFlood flood-opacity="0" result="BackgroundImageFix"/>
<feColorMatrix in="SourceAlpha" type="matrix" values="0 0 0 0 0 0 0 0 0 0 0 0 0 0 0 0 0 0 127 0" result="hardAlpha"/>
<feOffset dy="4"/>
<feGaussianBlur stdDeviation="2"/>
<feComposite in2="hardAlpha" operator="out"/>
<feColorMatrix type="matrix" values="0 0 0 0 0 0 0 0 0 0 0 0 0 0 0 0 0 0 0.25 0"/>
<feBlend mode="normal" in2="BackgroundImageFix" result="effect1_dropShadow_163_426"/>
<feBlend mode="normal" in="SourceGraphic" in2="effect1_dropShadow_163_426" result="shape"/>
</filter>
<filter id="filter2_d_163_426" x="48" y="560" width="494" height="181" filterUnits="userSpaceOnUse" color-interpolation-filters="sRGB">
<feFlood flood-opacity="0" result="BackgroundImageFix"/>
<feColorMatrix in="SourceAlpha" type="matrix" values="0 0 0 0 0 0 0 0 0 0 0 0 0 0 0 0 0 0 127 0" result="hardAlpha"/>
<feOffset dy="4"/>
<feGaussianBlur stdDeviation="2"/>
<feComposite in2="hardAlpha" operator="out"/>
<feColorMatrix type="matrix" values="0 0 0 0 0 0 0 0 0 0 0 0 0 0 0 0 0 0 0.25 0"/>
<feBlend mode="normal" in2="BackgroundImageFix" result="effect1_dropShadow_163_426"/>
<feBlend mode="normal" in="SourceGraphic" in2="effect1_dropShadow_163_426" result="shape"/>
</filter>
<filter id="filter3_d_163_426" x="388" y="280" width="494" height="181" filterUnits="userSpaceOnUse" color-interpolation-filters="sRGB">
<feFlood flood-opacity="0" result="BackgroundImageFix"/>
<feColorMatrix in="SourceAlpha" type="matrix" values="0 0 0 0 0 0 0 0 0 0 0 0 0 0 0 0 0 0 127 0" result="hardAlpha"/>
<feOffset dy="4"/>
<feGaussianBlur stdDeviation="2"/>
<feComposite in2="hardAlpha" operator="out"/>
<feColorMatrix type="matrix" values="0 0 0 0 0 0 0 0 0 0 0 0 0 0 0 0 0 0 0.25 0"/>
<feBlend mode="normal" in2="BackgroundImageFix" result="effect1_dropShadow_163_426"/>
<feBlend mode="normal" in="SourceGraphic" in2="effect1_dropShadow_163_426" result="shape"/>
</filter>
<filter id="filter4_d_163_426" x="77" y="0" width="495" height="181" filterUnits="userSpaceOnUse" color-interpolation-filters="sRGB">
<feFlood flood-opacity="0" result="BackgroundImageFix"/>
<feColorMatrix in="SourceAlpha" type="matrix" values="0 0 0 0 0 0 0 0 0 0 0 0 0 0 0 0 0 0 127 0" result="hardAlpha"/>
<feOffset dy="4"/>
<feGaussianBlur stdDeviation="2"/>
<feComposite in2="hardAlpha" operator="out"/>
<feColorMatrix type="matrix" values="0 0 0 0 0 0 0 0 0 0 0 0 0 0 0 0 0 0 0.25 0"/>
<feBlend mode="normal" in2="BackgroundImageFix" result="effect1_dropShadow_163_426"/>
<feBlend mode="normal" in="SourceGraphic" in2="effect1_dropShadow_163_426" result="shape"/>
</filter>
<filter id="filter5_d_163_426" x="58" y="0" width="27" height="26" filterUnits="userSpaceOnUse" color-interpolation-filters="sRGB">
<feFlood flood-opacity="0" result="BackgroundImageFix"/>
<feColorMatrix in="SourceAlpha" type="matrix" values="0 0 0 0 0 0 0 0 0 0 0 0 0 0 0 0 0 0 127 0" result="hardAlpha"/>
<feOffset dy="4"/>
<feGaussianBlur stdDeviation="2"/>
<feComposite in2="hardAlpha" operator="out"/>
<feColorMatrix type="matrix" values="0 0 0 0 0 0 0 0 0 0 0 0 0 0 0 0 0 0 0.25 0"/>
<feBlend mode="normal" in2="BackgroundImageFix" result="effect1_dropShadow_163_426"/>
<feBlend mode="normal" in="SourceGraphic" in2="effect1_dropShadow_163_426" result="shape"/>
</filter>
<filter id="filter6_d_163_426" x="874" y="280" width="27" height="26" filterUnits="userSpaceOnUse" color-interpolation-filters="sRGB">
<feFlood flood-opacity="0" result="BackgroundImageFix"/>
<feColorMatrix in="SourceAlpha" type="matrix" values="0 0 0 0 0 0 0 0 0 0 0 0 0 0 0 0 0 0 127 0" result="hardAlpha"/>
<feOffset dy="4"/>
<feGaussianBlur stdDeviation="2"/>
<feComposite in2="hardAlpha" operator="out"/>
<feColorMatrix type="matrix" values="0 0 0 0 0 0 0 0 0 0 0 0 0 0 0 0 0 0 0.25 0"/>
<feBlend mode="normal" in2="BackgroundImageFix" result="effect1_dropShadow_163_426"/>
<feBlend mode="normal" in="SourceGraphic" in2="effect1_dropShadow_163_426" result="shape"/>
</filter>
<filter id="filter7_d_163_426" x="19" y="560" width="37" height="32" filterUnits="userSpaceOnUse" color-interpolation-filters="sRGB">
<feFlood flood-opacity="0" result="BackgroundImageFix"/>
<feColorMatrix in="SourceAlpha" type="matrix" values="0 0 0 0 0 0 0 0 0 0 0 0 0 0 0 0 0 0 127 0" result="hardAlpha"/>
<feOffset dy="4"/>
<feGaussianBlur stdDeviation="2"/>
<feComposite in2="hardAlpha" operator="out"/>
<feColorMatrix type="matrix" values="0 0 0 0 0 0 0 0 0 0 0 0 0 0 0 0 0 0 0.25 0"/>
<feBlend mode="normal" in2="BackgroundImageFix" result="effect1_dropShadow_163_426"/>
<feBlend mode="normal" in="SourceGraphic" in2="effect1_dropShadow_163_426" result="shape"/>
</filter>
<filter id="filter8_d_163_426" x="126" y="30" width="184" height="26" filterUnits="userSpaceOnUse" color-interpolation-filters="sRGB">
<feFlood flood-opacity="0" result="BackgroundImageFix"/>
<feColorMatrix in="SourceAlpha" type="matrix" values="0 0 0 0 0 0 0 0 0 0 0 0 0 0 0 0 0 0 127 0" result="hardAlpha"/>
<feOffset dy="4"/>
<feGaussianBlur stdDeviation="2"/>
<feComposite in2="hardAlpha" operator="out"/>
<feColorMatrix type="matrix" values="0 0 0 0 0 0 0 0 0 0 0 0 0 0 0 0 0 0 0.25 0"/>
<feBlend mode="normal" in2="BackgroundImageFix" result="effect1_dropShadow_163_426"/>
<feBlend mode="normal" in="SourceGraphic" in2="effect1_dropShadow_163_426" result="shape"/>
</filter>
<filter id="filter9_d_163_426" x="126" y="66" width="319" height="31" filterUnits="userSpaceOnUse" color-interpolation-filters="sRGB">
<feFlood flood-opacity="0" result="BackgroundImageFix"/>
<feColorMatrix in="SourceAlpha" type="matrix" values="0 0 0 0 0 0 0 0 0 0 0 0 0 0 0 0 0 0 127 0" result="hardAlpha"/>
<feOffset dy="4"/>
<feGaussianBlur stdDeviation="2"/>
<feComposite in2="hardAlpha" operator="out"/>
<feColorMatrix type="matrix" values="0 0 0 0 0 0 0 0 0 0 0 0 0 0 0 0 0 0 0.25 0"/>
<feBlend mode="normal" in2="BackgroundImageFix" result="effect1_dropShadow_163_426"/>
<feBlend mode="normal" in="SourceGraphic" in2="effect1_dropShadow_163_426" result="shape"/>
</filter>
<filter id="filter10_d_163_426" x="126" y="107" width="270" height="26" filterUnits="userSpaceOnUse" color-interpolation-filters="sRGB">
<feFlood flood-opacity="0" result="BackgroundImageFix"/>
<feColorMatrix in="SourceAlpha" type="matrix" values="0 0 0 0 0 0 0 0 0 0 0 0 0 0 0 0 0 0 127 0" result="hardAlpha"/>
<feOffset dy="4"/>
<feGaussianBlur stdDeviation="2"/>
<feComposite in2="hardAlpha" operator="out"/>
<feColorMatrix type="matrix" values="0 0 0 0 0 0 0 0 0 0 0 0 0 0 0 0 0 0 0.25 0"/>
<feBlend mode="normal" in2="BackgroundImageFix" result="effect1_dropShadow_163_426"/>
<feBlend mode="normal" in="SourceGraphic" in2="effect1_dropShadow_163_426" result="shape"/>
</filter>
<filter id="filter11_d_163_426" x="496" y="155" width="56" height="20" filterUnits="userSpaceOnUse" color-interpolation-filters="sRGB">
<feFlood flood-opacity="0" result="BackgroundImageFix"/>
<feColorMatrix in="SourceAlpha" type="matrix" values="0 0 0 0 0 0 0 0 0 0 0 0 0 0 0 0 0 0 127 0" result="hardAlpha"/>
<feOffset dy="4"/>
<feGaussianBlur stdDeviation="2"/>
<feComposite in2="hardAlpha" operator="out"/>
<feColorMatrix type="matrix" values="0 0 0 0 0 0 0 0 0 0 0 0 0 0 0 0 0 0 0.25 0"/>
<feBlend mode="normal" in2="BackgroundImageFix" result="effect1_dropShadow_163_426"/>
<feBlend mode="normal" in="SourceGraphic" in2="effect1_dropShadow_163_426" result="shape"/>
</filter>
<filter id="filter12_d_163_426" x="407" y="429" width="68" height="20" filterUnits="userSpaceOnUse" color-interpolation-filters="sRGB">
<feFlood flood-opacity="0" result="BackgroundImageFix"/>
<feColorMatrix in="SourceAlpha" type="matrix" values="0 0 0 0 0 0 0 0 0 0 0 0 0 0 0 0 0 0 127 0" result="hardAlpha"/>
<feOffset dy="4"/>
<feGaussianBlur stdDeviation="2"/>
<feComposite in2="hardAlpha" operator="out"/>
<feColorMatrix type="matrix" values="0 0 0 0 0 0 0 0 0 0 0 0 0 0 0 0 0 0 0.25 0"/>
<feBlend mode="normal" in2="BackgroundImageFix" result="effect1_dropShadow_163_426"/>
<feBlend mode="normal" in="SourceGraphic" in2="effect1_dropShadow_163_426" result="shape"/>
</filter>
<filter id="filter13_d_163_426" x="611" y="304" width="242" height="20" filterUnits="userSpaceOnUse" color-interpolation-filters="sRGB">
<feFlood flood-opacity="0" result="BackgroundImageFix"/>
<feColorMatrix in="SourceAlpha" type="matrix" values="0 0 0 0 0 0 0 0 0 0 0 0 0 0 0 0 0 0 127 0" result="hardAlpha"/>
<feOffset dy="4"/>
<feGaussianBlur stdDeviation="2"/>
<feComposite in2="hardAlpha" operator="out"/>
<feColorMatrix type="matrix" values="0 0 0 0 0 0 0 0 0 0 0 0 0 0 0 0 0 0 0.25 0"/>
<feBlend mode="normal" in2="BackgroundImageFix" result="effect1_dropShadow_163_426"/>
<feBlend mode="normal" in="SourceGraphic" in2="effect1_dropShadow_163_426" result="shape"/>
</filter>
<filter id="filter14_d_163_426" x="748" y="328" width="105" height="20" filterUnits="userSpaceOnUse" color-interpolation-filters="sRGB">
<feFlood flood-opacity="0" result="BackgroundImageFix"/>
<feColorMatrix in="SourceAlpha" type="matrix" values="0 0 0 0 0 0 0 0 0 0 0 0 0 0 0 0 0 0 127 0" result="hardAlpha"/>
<feOffset dy="4"/>
<feGaussianBlur stdDeviation="2"/>
<feComposite in2="hardAlpha" operator="out"/>
<feColorMatrix type="matrix" values="0 0 0 0 0 0 0 0 0 0 0 0 0 0 0 0 0 0 0.25 0"/>
<feBlend mode="normal" in2="BackgroundImageFix" result="effect1_dropShadow_163_426"/>
<feBlend mode="normal" in="SourceGraphic" in2="effect1_dropShadow_163_426" result="shape"/>
</filter>
<filter id="filter15_d_163_426" x="689" y="352" width="164" height="20" filterUnits="userSpaceOnUse" color-interpolation-filters="sRGB">
<feFlood flood-opacity="0" result="BackgroundImageFix"/>
<feColorMatrix in="SourceAlpha" type="matrix" values="0 0 0 0 0 0 0 0 0 0 0 0 0 0 0 0 0 0 127 0" result="hardAlpha"/>
<feOffset dy="4"/>
<feGaussianBlur stdDeviation="2"/>
<feComposite in2="hardAlpha" operator="out"/>
<feColorMatrix type="matrix" values="0 0 0 0 0 0 0 0 0 0 0 0 0 0 0 0 0 0 0.25 0"/>
<feBlend mode="normal" in2="BackgroundImageFix" result="effect1_dropShadow_163_426"/>
<feBlend mode="normal" in="SourceGraphic" in2="effect1_dropShadow_163_426" result="shape"/>
</filter>
<filter id="filter16_d_163_426" x="524" y="375" width="329" height="20" filterUnits="userSpaceOnUse" color-interpolation-filters="sRGB">
<feFlood flood-opacity="0" result="BackgroundImageFix"/>
<feColorMatrix in="SourceAlpha" type="matrix" values="0 0 0 0 0 0 0 0 0 0 0 0 0 0 0 0 0 0 127 0" result="hardAlpha"/>
<feOffset dy="4"/>
<feGaussianBlur stdDeviation="2"/>
<feComposite in2="hardAlpha" operator="out"/>
<feColorMatrix type="matrix" values="0 0 0 0 0 0 0 0 0 0 0 0 0 0 0 0 0 0 0.25 0"/>
<feBlend mode="normal" in2="BackgroundImageFix" result="effect1_dropShadow_163_426"/>
<feBlend mode="normal" in="SourceGraphic" in2="effect1_dropShadow_163_426" result="shape"/>
</filter>
<filter id="filter17_d_163_426" x="620" y="393" width="233" height="20" filterUnits="userSpaceOnUse" color-interpolation-filters="sRGB">
<feFlood flood-opacity="0" result="BackgroundImageFix"/>
<feColorMatrix in="SourceAlpha" type="matrix" values="0 0 0 0 0 0 0 0 0 0 0 0 0 0 0 0 0 0 127 0" result="hardAlpha"/>
<feOffset dy="4"/>
<feGaussianBlur stdDeviation="2"/>
<feComposite in2="hardAlpha" operator="out"/>
<feColorMatrix type="matrix" values="0 0 0 0 0 0 0 0 0 0 0 0 0 0 0 0 0 0 0.25 0"/>
<feBlend mode="normal" in2="BackgroundImageFix" result="effect1_dropShadow_163_426"/>
<feBlend mode="normal" in="SourceGraphic" in2="effect1_dropShadow_163_426" result="shape"/>
</filter>
<filter id="filter18_d_163_426" x="77" y="584" width="194" height="32" filterUnits="userSpaceOnUse" color-interpolation-filters="sRGB">
<feFlood flood-opacity="0" result="BackgroundImageFix"/>
<feColorMatrix in="SourceAlpha" type="matrix" values="0 0 0 0 0 0 0 0 0 0 0 0 0 0 0 0 0 0 127 0" result="hardAlpha"/>
<feOffset dy="4"/>
<feGaussianBlur stdDeviation="2"/>
<feComposite in2="hardAlpha" operator="out"/>
<feColorMatrix type="matrix" values="0 0 0 0 0 0 0 0 0 0 0 0 0 0 0 0 0 0 0.25 0"/>
<feBlend mode="normal" in2="BackgroundImageFix" result="effect1_dropShadow_163_426"/>
<feBlend mode="normal" in="SourceGraphic" in2="effect1_dropShadow_163_426" result="shape"/>
</filter>
<filter id="filter19_d_163_426" x="77" y="626" width="319" height="26" filterUnits="userSpaceOnUse" color-interpolation-filters="sRGB">
<feFlood flood-opacity="0" result="BackgroundImageFix"/>
<feColorMatrix in="SourceAlpha" type="matrix" values="0 0 0 0 0 0 0 0 0 0 0 0 0 0 0 0 0 0 127 0" result="hardAlpha"/>
<feOffset dy="4"/>
<feGaussianBlur stdDeviation="2"/>
<feComposite in2="hardAlpha" operator="out"/>
<feColorMatrix type="matrix" values="0 0 0 0 0 0 0 0 0 0 0 0 0 0 0 0 0 0 0.25 0"/>
<feBlend mode="normal" in2="BackgroundImageFix" result="effect1_dropShadow_163_426"/>
<feBlend mode="normal" in="SourceGraphic" in2="effect1_dropShadow_163_426" result="shape"/>
</filter>
<filter id="filter20_d_163_426" x="77" y="667" width="57" height="26" filterUnits="userSpaceOnUse" color-interpolation-filters="sRGB">
<feFlood flood-opacity="0" result="BackgroundImageFix"/>
<feColorMatrix in="SourceAlpha" type="matrix" values="0 0 0 0 0 0 0 0 0 0 0 0 0 0 0 0 0 0 127 0" result="hardAlpha"/>
<feOffset dy="4"/>
<feGaussianBlur stdDeviation="2"/>
<feComposite in2="hardAlpha" operator="out"/>
<feColorMatrix type="matrix" values="0 0 0 0 0 0 0 0 0 0 0 0 0 0 0 0 0 0 0.25 0"/>
<feBlend mode="normal" in2="BackgroundImageFix" result="effect1_dropShadow_163_426"/>
<feBlend mode="normal" in="SourceGraphic" in2="effect1_dropShadow_163_426" result="shape"/>
</filter>
<filter id="filter21_d_163_426" x="29" y="6" width="47" height="50" filterUnits="userSpaceOnUse" color-interpolation-filters="sRGB">
<feFlood flood-opacity="0" result="BackgroundImageFix"/>
<feColorMatrix in="SourceAlpha" type="matrix" values="0 0 0 0 0 0 0 0 0 0 0 0 0 0 0 0 0 0 127 0" result="hardAlpha"/>
<feOffset dy="4"/>
<feGaussianBlur stdDeviation="2"/>
<feComposite in2="hardAlpha" operator="out"/>
<feColorMatrix type="matrix" values="0 0 0 0 0 0 0 0 0 0 0 0 0 0 0 0 0 0 0.25 0"/>
<feBlend mode="normal" in2="BackgroundImageFix" result="effect1_dropShadow_163_426"/>
<feBlend mode="normal" in="SourceGraphic" in2="effect1_dropShadow_163_426" result="shape"/>
</filter>
<filter id="filter22_d_163_426" x="436.264" y="174.708" width="206.315" height="112.855" filterUnits="userSpaceOnUse" color-interpolation-filters="sRGB">
<feFlood flood-opacity="0" result="BackgroundImageFix"/>
<feColorMatrix in="SourceAlpha" type="matrix" values="0 0 0 0 0 0 0 0 0 0 0 0 0 0 0 0 0 0 127 0" result="hardAlpha"/>
<feOffset dy="4"/>
<feGaussianBlur stdDeviation="2"/>
<feComposite in2="hardAlpha" operator="out"/>
<feColorMatrix type="matrix" values="0 0 0 0 0 0 0 0 0 0 0 0 0 0 0 0 0 0 0.25 0"/>
<feBlend mode="normal" in2="BackgroundImageFix" result="effect1_dropShadow_163_426"/>
<feBlend mode="normal" in="SourceGraphic" in2="effect1_dropShadow_163_426" result="shape"/>
</filter>
<filter id="filter23_d_163_426" x="303.796" y="455.142" width="236.285" height="111.18" filterUnits="userSpaceOnUse" color-interpolation-filters="sRGB">
<feFlood flood-opacity="0" result="BackgroundImageFix"/>
<feColorMatrix in="SourceAlpha" type="matrix" values="0 0 0 0 0 0 0 0 0 0 0 0 0 0 0 0 0 0 127 0" result="hardAlpha"/>
<feOffset dy="4"/>
<feGaussianBlur stdDeviation="2"/>
<feComposite in2="hardAlpha" operator="out"/>
<feColorMatrix type="matrix" values="0 0 0 0 0 0 0 0 0 0 0 0 0 0 0 0 0 0 0.25 0"/>
<feBlend mode="normal" in2="BackgroundImageFix" result="effect1_dropShadow_163_426"/>
<feBlend mode="normal" in="SourceGraphic" in2="effect1_dropShadow_163_426" result="shape"/>
</filter>
</defs>
</svg>
