<svg width="507" height="579" viewBox="0 0 507 579" fill="none" xmlns="http://www.w3.org/2000/svg">
<g filter="url(#filter0_d_56_188)">
<path d="M23 125L353.883 217.966L419.591 558.593L61.3293 499.839L23 125Z" fill="#171717"/>
</g>
<path d="M184.139 316.882C184.139 334.955 168.73 349.606 149.721 349.606C130.713 349.606 115.303 334.955 115.303 316.882C115.303 298.809 130.713 284.158 149.721 284.158C168.73 284.158 184.139 298.809 184.139 316.882Z" fill="#212121"/>
<path d="M235.769 280.429L324.632 399.488L157.544 436.18L235.769 280.429Z" fill="#212121"/>
<path d="M299.661 415.337L317.823 435.636L291.842 441.908L299.661 415.337Z" fill="#282828"/>
<rect width="165.438" height="27.1239" transform="matrix(0.719927 -0.69405 0.669716 0.742618 299.372 415.527)" fill="#2C2C2C"/>
<rect width="16.2194" height="9.75291" transform="matrix(0.719927 -0.69405 0.669716 0.742617 424.121 307.447)" fill="#363535"/>
<rect width="5.145" height="68.0903" transform="matrix(0.669716 0.742617 -0.719927 0.69405 433.439 325.801)" fill="#313131"/>
<rect width="1.34568" height="12.9076" transform="matrix(0.669716 0.742617 -0.719928 0.694049 431.143 326.148)" fill="#313131"/>
<g filter="url(#filter1_i_56_188)">
<rect width="13.4712" height="57.6538" rx="6.73558" transform="matrix(0.669716 0.742617 -0.719927 0.69405 384.388 343.306)" fill="#3B3B3B"/>
</g>
<path d="M292.825 437.907L295.873 440.967L291.468 442.008L292.825 437.907Z" fill="#3B3B3B"/>
<path d="M85 445.732C85 456.077 76.4934 487 66 487C55.5066 487 47 456.077 47 445.732C47 435.386 55.5066 427 66 427C76.4934 427 85 435.386 85 445.732Z" fill="#363535"/>
<path d="M107.349 522.4C97.1607 520.604 68.1846 506.856 70.0067 496.522C71.8289 486.188 103.759 483.181 113.947 484.977C124.135 486.774 130.917 496.607 129.095 506.941C127.273 517.275 117.537 524.196 107.349 522.4Z" fill="#363535"/>
<path d="M40.4901 447.01C48.8596 453.091 68.8768 478.149 62.7089 486.638C56.5411 495.128 26.5237 483.834 18.1543 477.753C9.7848 471.672 8.00005 459.861 14.1679 451.371C20.3358 442.882 32.1206 440.929 40.4901 447.01Z" fill="#363535"/>
<path d="M18.5494 481.743C28.794 480.304 60.6 484.424 62.0604 494.815C63.5208 505.206 34.0826 517.934 23.838 519.374C13.5934 520.813 4.10469 513.557 2.64428 503.165C1.18388 492.774 8.30485 483.183 18.5494 481.743Z" fill="#363535"/>
<path d="M26.3661 523.739C31.5387 514.78 54.3671 492.253 63.4547 497.5C72.5423 502.747 64.4477 533.78 59.275 542.739C54.1024 551.699 42.5423 554.708 33.4547 549.461C24.3671 544.215 21.1935 532.699 26.3661 523.739Z" fill="#363535"/>
<path d="M114.933 477.933C106.781 484.303 77.1756 496.637 70.7153 488.368C64.2549 480.1 83.3854 454.358 91.5376 447.989C99.6897 441.62 111.536 443.16 117.996 451.429C124.456 459.698 123.085 471.564 114.933 477.933Z" fill="#363535"/>
<path d="M66.6811 538.697C64.0035 528.705 64.2168 496.633 74.3526 493.918C84.4885 491.202 100.709 518.869 103.386 528.862C106.064 538.855 100.018 549.157 89.8818 551.873C79.7459 554.589 69.3586 548.69 66.6811 538.697Z" fill="#363535"/>
<circle cx="65" cy="490" r="15" fill="#444444"/>
<path d="M117.803 72.6436L53.3587 130.749L58.8797 157.894L117.803 72.6436Z" fill="#363535"/>
<path d="M117.716 72.8591L48.6971 123.431L28.5068 108.232L117.716 72.8591Z" fill="#363535"/>
<path d="M116.744 73.5896L48.7738 123.414L43.1883 139.898L53.3588 130.749L116.744 73.5896Z" fill="#444444"/>
<ellipse cx="235.611" cy="75.6923" rx="22.6108" ry="21.8462" fill="#545454"/>
<ellipse cx="278.505" cy="62.7692" rx="36.9089" ry="34.7692" fill="#545454"/>
<ellipse cx="258.554" cy="98.1538" rx="26.2685" ry="25.8462" fill="#545454"/>
<ellipse cx="320.734" cy="77.8462" rx="27.266" ry="24" fill="#464646"/>
<ellipse cx="299.121" cy="95.9999" rx="29.5936" ry="26.7692" fill="#545454"/>
<ellipse cx="266.867" cy="68.6154" rx="2.6601" ry="6.76923" fill="#302F2F"/>
<ellipse cx="290.808" cy="68.6154" rx="2.6601" ry="6.76923" fill="#302F2F"/>
<path d="M293.468 84.995C293.468 86.791 283.703 91.3847 277.603 91.3847C271.503 91.3847 262.877 87.7038 262.877 85.9078C262.877 84.1118 271.503 88.361 277.603 88.361C283.703 88.361 293.468 83.199 293.468 84.995Z" fill="#302F2F"/>
<ellipse cx="316.778" cy="73.1827" rx="22.7783" ry="22.5288" fill="#464646"/>
<ellipse cx="359.99" cy="59.8558" rx="37.1823" ry="35.8558" fill="#464646"/>
<ellipse cx="339.892" cy="96.3462" rx="26.4631" ry="26.6538" fill="#464646"/>
<ellipse cx="402.532" cy="75.4038" rx="27.468" ry="24.75" fill="#464646"/>
<ellipse cx="380.759" cy="94.1251" rx="29.8128" ry="27.6058" fill="#464646"/>
<ellipse cx="348.266" cy="65.8846" rx="2.6798" ry="6.98077" fill="#302F2F"/>
<ellipse cx="372.384" cy="65.8846" rx="2.6798" ry="6.98077" fill="#302F2F"/>
<path d="M375.064 82.7759C375.064 84.628 365.227 89.3653 359.082 89.3653C352.937 89.3653 344.246 85.5693 344.246 83.7172C344.246 81.8651 352.937 86.2471 359.082 86.2471C365.227 86.2471 375.064 80.9238 375.064 82.7759Z" fill="#302F2F"/>
<path d="M146.803 93.1086L124.244 118.576L131.209 129.293L146.803 93.1086Z" fill="#363535"/>
<path d="M146.794 93.1982L120.807 115.792L108.506 110.357L146.794 93.1982Z" fill="#363535"/>
<path d="M146.431 93.5236L120.842 115.782L120.68 122.587L124.244 118.576L146.431 93.5236Z" fill="#444444"/>
<defs>
<filter id="filter0_d_56_188" x="8" y="125" width="416.591" height="453.593" filterUnits="userSpaceOnUse" color-interpolation-filters="sRGB">
<feFlood flood-opacity="0" result="BackgroundImageFix"/>
<feColorMatrix in="SourceAlpha" type="matrix" values="0 0 0 0 0 0 0 0 0 0 0 0 0 0 0 0 0 0 127 0" result="hardAlpha"/>
<feOffset dx="-5" dy="10"/>
<feGaussianBlur stdDeviation="5"/>
<feComposite in2="hardAlpha" operator="out"/>
<feColorMatrix type="matrix" values="0 0 0 0 0.15 0 0 0 0 0.15 0 0 0 0 0.15 0 0 0 1 0"/>
<feBlend mode="normal" in2="BackgroundImageFix" result="effect1_dropShadow_56_188"/>
<feBlend mode="normal" in="SourceGraphic" in2="effect1_dropShadow_56_188" result="shape"/>
</filter>
<filter id="filter1_i_56_188" x="345.619" y="346.136" width="46.0541" height="45.3579" filterUnits="userSpaceOnUse" color-interpolation-filters="sRGB">
<feFlood flood-opacity="0" result="BackgroundImageFix"/>
<feBlend mode="normal" in="SourceGraphic" in2="BackgroundImageFix" result="shape"/>
<feColorMatrix in="SourceAlpha" type="matrix" values="0 0 0 0 0 0 0 0 0 0 0 0 0 0 0 0 0 0 127 0" result="hardAlpha"/>
<feMorphology radius="3" operator="dilate" in="SourceAlpha" result="effect1_innerShadow_56_188"/>
<feOffset dx="3" dy="8"/>
<feGaussianBlur stdDeviation="2"/>
<feComposite in2="hardAlpha" operator="arithmetic" k2="-1" k3="1"/>
<feColorMatrix type="matrix" values="0 0 0 0 0.14 0 0 0 0 0.139416 0 0 0 0 0.139416 0 0 0 0.73 0"/>
<feBlend mode="normal" in2="shape" result="effect1_innerShadow_56_188"/>
</filter>
</defs>
</svg>
