<svg width="365" height="186" viewBox="0 0 365 186" fill="none" xmlns="http://www.w3.org/2000/svg">
<path d="M0 0L183.927 7.77316C195.081 8.24456 204.595 15.9986 207.308 26.828L219.618 75.978L31.9051 70.6504C19.7667 70.3059 9.6003 61.3536 7.72302 49.3563L0 0Z" fill="#313131" fill-opacity="0.9"/>
<path d="M64.992 47.9457C63.3984 47.9457 62.256 47.5713 61.5648 46.8225C60.8736 46.0545 60.528 45.0465 60.528 43.7985C60.528 43.4721 60.5568 43.0785 60.6144 42.6177C60.672 42.1569 60.7488 41.6001 60.8448 40.9473C60.9984 40.0065 61.1136 39.1713 61.1904 38.4417C61.2672 37.6929 61.3056 36.8769 61.3056 35.9937C61.3056 34.9761 61.2768 34.1505 61.2192 33.5169C60.8928 33.7089 60.6528 33.8049 60.4992 33.8049C60.192 33.8049 60.0384 33.4593 60.0384 32.7681C60.0384 32.2305 60.1536 31.7793 60.384 31.4145C60.6336 31.0305 61.0368 30.6753 61.5936 30.3489C62.1504 30.0033 62.8512 29.7057 63.696 29.4561C64.56 29.2065 65.4816 29.0817 66.4608 29.0817C68.0544 29.0817 69.264 29.4465 70.0896 30.1761C70.9152 30.9057 71.328 31.8657 71.328 33.0561C71.328 33.8241 71.1648 34.5345 70.8384 35.1873C70.512 35.8401 70.0512 36.4161 69.456 36.9153C71.856 37.2993 73.056 38.6817 73.056 41.0625C73.056 42.3489 72.6912 43.5201 71.9616 44.5761C71.232 45.6321 70.2432 46.4577 68.9952 47.0529C67.7856 47.6481 66.4512 47.9457 64.992 47.9457ZM66.144 44.7489C67.008 44.7489 67.7856 44.6337 68.4768 44.4033C69.1872 44.1537 69.7536 43.7985 70.176 43.3377C70.5984 42.8769 70.8096 42.3393 70.8096 41.7249C70.8096 40.9377 70.5312 40.3809 69.9744 40.0545C69.4176 39.7281 68.7744 39.5649 68.0448 39.5649C67.7376 39.5649 67.3536 39.5937 66.8928 39.6513C66.7008 39.6897 66.48 39.7089 66.2304 39.7089C65.808 39.7089 65.4528 39.5361 65.1648 39.1905C64.896 38.8449 64.7616 38.4129 64.7616 37.8945C64.7616 37.5297 64.9248 37.2993 65.2512 37.2033C67.5936 36.5889 68.7648 35.5233 68.7648 34.0065C68.7648 32.7969 67.9296 32.1921 66.2592 32.1921C65.6448 32.1921 64.8864 32.2977 63.984 32.5089C63.984 33.4497 63.936 34.4385 63.84 35.4753C63.744 36.4929 63.6 37.5585 63.408 38.6721C63.2928 39.4401 63.1968 40.0929 63.12 40.6305C63.0624 41.1489 63.0336 41.5713 63.0336 41.8977C63.0336 42.9345 63.2928 43.6737 63.8112 44.1153C64.3296 44.5377 65.1072 44.7489 66.144 44.7489ZM82.2457 47.9745C80.2297 47.9745 78.7225 47.4465 77.7241 46.3905C76.7257 45.3153 76.2265 43.6353 76.2265 41.3505C76.2265 40.9665 76.2361 40.5633 76.2553 40.1409C76.2937 39.7185 76.3321 39.3057 76.3705 38.9025C76.4089 38.5185 76.4377 38.1345 76.4569 37.7505C76.4761 37.3665 76.4857 37.0209 76.4857 36.7137C76.4857 35.5617 76.4377 34.5633 76.3417 33.7185C76.2457 32.8737 75.9577 32.0673 75.4777 31.2993C75.3241 31.0497 75.2473 30.8481 75.2473 30.6945C75.2473 30.4449 75.3817 30.2049 75.6505 29.9745C75.9385 29.7249 76.2745 29.5137 76.6585 29.3409C77.0425 29.1681 77.4073 29.0817 77.7529 29.0817C78.2137 29.0817 78.5401 29.2353 78.7321 29.5425C78.9433 29.8497 79.0777 30.2337 79.1353 30.6945C79.1929 31.1361 79.2217 31.5873 79.2217 32.0481C79.2217 32.5281 79.1929 33.0561 79.1353 33.6321C79.0969 34.2081 79.0297 34.8321 78.9337 35.5041C78.8569 36.2337 78.7801 37.0017 78.7033 37.8081C78.6457 38.5953 78.6169 39.3921 78.6169 40.1985C78.6169 41.3121 78.8089 42.2049 79.1929 42.8769C79.5961 43.5297 80.1337 44.0097 80.8057 44.3169C81.4969 44.6049 82.2649 44.7489 83.1097 44.7489C84.5881 44.7489 85.7017 44.3745 86.4505 43.6257C87.1993 42.8577 87.7177 41.8593 88.0057 40.6305C88.1401 40.0737 88.2457 39.4401 88.3225 38.7297C88.3993 38.0001 88.4377 37.2609 88.4377 36.5121C88.4377 35.5713 88.3705 34.6689 88.2361 33.8049C88.1209 32.9409 87.8809 32.1825 87.5161 31.5297C87.4393 31.3761 87.3721 31.2417 87.3145 31.1265C87.2569 31.0113 87.2281 30.8865 87.2281 30.7521C87.2281 30.4833 87.3433 30.2241 87.5737 29.9745C87.8041 29.7057 88.0921 29.4945 88.4377 29.3409C88.7833 29.1681 89.1385 29.0817 89.5033 29.0817C90.1177 29.0817 90.5305 29.3409 90.7417 29.8593C90.9529 30.3777 91.0585 30.9825 91.0585 31.6737C91.0585 32.0961 91.0201 32.7105 90.9433 33.5169C90.8857 34.3233 90.7993 35.1873 90.6841 36.1089C90.5689 37.0305 90.4537 37.9041 90.3385 38.7297C90.2233 39.5361 90.1177 40.1601 90.0217 40.6017C89.5417 42.8865 88.6969 44.6913 87.4873 46.0161C86.2777 47.3217 84.5305 47.9745 82.2457 47.9745ZM99.2109 47.7153C98.6157 47.7153 98.1645 47.5905 97.8573 47.3409C97.5501 47.0721 97.3965 46.6113 97.3965 45.9585C97.3965 45.4593 97.4733 44.7681 97.6269 43.8849C97.7997 42.9825 98.0397 41.9841 98.3469 40.8897C98.1933 40.1217 98.0013 39.3249 97.7709 38.4993C97.5597 37.6545 97.3101 36.8577 97.0221 36.1089C96.6573 35.0913 96.2157 34.2369 95.6973 33.5457C95.1789 32.8545 94.5645 32.5089 93.8541 32.5089C93.7197 32.5089 93.5853 32.5185 93.4509 32.5377C93.3357 32.5569 93.2301 32.5857 93.1341 32.6241C92.9421 32.6625 92.7405 32.5281 92.5293 32.2209C92.3373 31.9137 92.2413 31.5489 92.2413 31.1265C92.2413 30.5889 92.4237 30.1185 92.7885 29.7153C93.1725 29.2929 93.6909 29.0817 94.3437 29.0817C95.1501 29.0817 95.8893 29.3505 96.5613 29.8881C97.2525 30.4065 97.8573 31.2897 98.3757 32.5377C98.9133 33.7857 99.3453 35.4849 99.6717 37.6353C100.017 36.7521 100.43 35.8209 100.91 34.8417C101.409 33.8433 101.966 32.9121 102.58 32.0481C103.195 31.1649 103.857 30.4545 104.568 29.9169C105.278 29.3601 106.027 29.0817 106.814 29.0817C107.332 29.0817 107.726 29.2065 107.995 29.4561C108.283 29.7057 108.427 30.0513 108.427 30.4929C108.427 30.8001 108.36 31.1265 108.225 31.4721C108.11 31.8177 107.947 32.1153 107.736 32.3649C107.524 32.6145 107.304 32.7393 107.073 32.7393C106.996 32.7393 106.91 32.7393 106.814 32.7393C106.737 32.7201 106.651 32.6913 106.555 32.6529C106.363 32.5569 106.142 32.5089 105.892 32.5089C105.278 32.5089 104.606 32.9313 103.876 33.7761C103.147 34.6209 102.427 35.9265 101.716 37.6929C100.987 39.5553 100.622 41.3601 100.622 43.1073C100.622 43.5105 100.67 43.9137 100.766 44.3169C100.881 44.7009 101.083 45.0561 101.371 45.3825C101.563 45.6705 101.659 45.9393 101.659 46.1889C101.659 46.6113 101.428 46.9761 100.968 47.2833C100.507 47.5713 99.9213 47.7153 99.2109 47.7153Z" fill="white"/>
<circle cx="187.362" cy="89.9639" r="27.72" fill="#464646"/>
<path d="M186.288 108.608C185.744 108.608 185.344 108.448 185.088 108.128C184.864 107.808 184.752 107.136 184.752 106.112C184.752 105.76 184.752 105.36 184.752 104.912C184.784 104.496 184.816 104.064 184.848 103.616C183.376 103.584 182.032 103.344 180.816 102.896C179.6 102.448 178.624 101.84 177.888 101.072C177.184 100.272 176.832 99.344 176.832 98.288C176.832 97.52 176.992 96.912 177.312 96.464C177.664 95.984 178.096 95.744 178.608 95.744C178.864 95.744 179.072 95.792 179.232 95.888C179.424 95.952 179.584 96.048 179.712 96.176C181.248 97.456 183.072 98.24 185.184 98.528C185.248 97.472 185.312 96.304 185.376 95.024C185.472 93.712 185.584 92.256 185.712 90.656C184.4 90.336 183.152 89.92 181.968 89.408C180.816 88.896 179.872 88.192 179.136 87.296C178.432 86.4 178.08 85.248 178.08 83.84C178.08 82.56 178.4 81.28 179.04 80C179.68 78.72 180.592 77.584 181.776 76.592C182.992 75.6 184.448 74.896 186.144 74.48C186.144 74.32 186.128 74.048 186.096 73.664C186.064 73.28 186.032 72.896 186 72.512C185.968 72.128 185.952 71.872 185.952 71.744C185.952 71.296 186.176 70.864 186.624 70.448C187.104 70.032 187.712 69.824 188.448 69.824C189.28 69.824 189.76 70.176 189.888 70.88C190.016 71.584 190.048 72.64 189.984 74.048C192 74.08 193.68 74.464 195.024 75.2C196.368 75.904 197.04 76.768 197.04 77.792C197.04 78.368 196.816 78.912 196.368 79.424C195.952 79.904 195.456 80.304 194.88 80.624C194.304 80.912 193.808 81.056 193.392 81.056C193.136 81.056 192.816 80.912 192.432 80.624C192.24 80.464 191.936 80.256 191.52 80C191.104 79.744 190.48 79.504 189.648 79.28C189.616 80.336 189.552 81.504 189.456 82.784C189.392 84.064 189.328 85.264 189.264 86.384C190.8 86.704 192.128 87.12 193.248 87.632C194.4 88.112 195.296 88.8 195.936 89.696C196.576 90.56 196.896 91.728 196.896 93.2C196.896 94.672 196.56 96.096 195.888 97.472C195.216 98.848 194.256 100.048 193.008 101.072C191.76 102.064 190.256 102.784 188.496 103.232C188.56 103.808 188.608 104.416 188.64 105.056C188.672 105.696 188.688 106.176 188.688 106.496C188.688 107.2 188.464 107.728 188.016 108.08C187.6 108.432 187.024 108.608 186.288 108.608ZM185.952 85.52C186.016 84.336 186.064 83.168 186.096 82.016C186.128 80.864 186.144 79.872 186.144 79.04C184.992 79.168 184.048 79.52 183.312 80.096C182.576 80.672 182.208 81.376 182.208 82.208C182.208 83.008 182.56 83.68 183.264 84.224C183.968 84.768 184.864 85.2 185.952 85.52ZM188.688 98.48C190.128 98.224 191.232 97.776 192 97.136C192.768 96.464 193.152 95.648 193.152 94.688C193.152 93.76 192.8 93.056 192.096 92.576C191.424 92.096 190.384 91.68 188.976 91.328C188.912 92.864 188.848 94.224 188.784 95.408C188.752 96.56 188.72 97.584 188.688 98.48Z" fill="#DDDCDC"/>
<path d="M145.278 109.872L329.205 117.645C340.359 118.117 349.873 125.871 352.586 136.7L364.896 185.85L177.183 180.522C165.045 180.178 154.878 171.226 153.001 159.228L145.278 109.872Z" fill="#313131" fill-opacity="0.9"/>
<path d="M260.795 161.446C259.854 161.446 258.98 161.312 258.174 161.043C257.387 160.755 256.753 160.362 256.273 159.862C255.793 159.363 255.553 158.778 255.553 158.106C255.553 157.664 255.659 157.28 255.87 156.954C256.081 156.608 256.369 156.435 256.734 156.435C256.964 156.435 257.204 156.522 257.454 156.694C257.934 157.117 258.548 157.491 259.297 157.818C260.065 158.125 260.881 158.278 261.745 158.278C262.878 158.278 263.8 158.058 264.51 157.616C265.24 157.155 265.604 156.541 265.604 155.773C265.604 155.043 265.268 154.515 264.596 154.189C263.924 153.862 262.993 153.555 261.803 153.267C260.92 153.056 260.065 152.787 259.24 152.461C258.433 152.134 257.761 151.683 257.224 151.107C256.705 150.512 256.446 149.725 256.446 148.746C256.446 147.997 256.609 147.258 256.936 146.528C257.262 145.779 257.742 145.098 258.376 144.483C259.009 143.869 259.777 143.379 260.68 143.014C261.582 142.63 262.6 142.438 263.732 142.438C264.577 142.438 265.345 142.534 266.036 142.726C266.747 142.918 267.304 143.187 267.707 143.533C268.129 143.878 268.34 144.301 268.34 144.8C268.34 145.184 268.235 145.52 268.024 145.808C267.812 146.096 267.563 146.326 267.275 146.499C266.987 146.653 266.737 146.73 266.526 146.73C266.334 146.73 266.075 146.643 265.748 146.47C265.211 146.182 264.606 145.962 263.934 145.808C263.281 145.635 262.705 145.549 262.206 145.549C261.265 145.549 260.497 145.76 259.902 146.182C259.326 146.586 259.038 147.066 259.038 147.622C259.038 148.237 259.403 148.755 260.132 149.178C260.881 149.581 262.216 150.013 264.136 150.474C265.441 150.819 266.459 151.299 267.188 151.914C267.918 152.509 268.283 153.459 268.283 154.765C268.283 155.936 267.966 157.03 267.332 158.048C266.718 159.066 265.844 159.891 264.712 160.525C263.598 161.139 262.292 161.446 260.795 161.446ZM276.408 161.446C274.584 161.446 273.231 161.158 272.348 160.582C271.484 159.987 271.052 158.883 271.052 157.27C271.052 156.944 271.071 156.55 271.109 156.09C271.167 155.629 271.244 155.072 271.34 154.419C271.493 153.478 271.608 152.643 271.685 151.914C271.762 151.165 271.8 150.349 271.8 149.466C271.8 148.89 271.781 148.333 271.743 147.795C271.724 147.258 271.676 146.749 271.599 146.269C271.311 146.326 271.119 146.355 271.023 146.355C270.869 146.355 270.764 146.326 270.706 146.269C270.648 146.192 270.62 146.058 270.62 145.866C270.62 145.462 270.668 145.069 270.764 144.685C270.86 144.282 270.994 143.955 271.167 143.706C271.493 143.245 271.992 142.976 272.664 142.899C273.183 142.842 273.816 142.784 274.565 142.726C275.333 142.669 276.111 142.63 276.898 142.611C277.704 142.573 278.424 142.554 279.058 142.554C280.824 142.554 281.871 142.592 282.197 142.669C282.696 142.746 282.946 143.014 282.946 143.475C282.946 144.051 282.744 144.579 282.341 145.059C282.13 145.347 281.919 145.558 281.708 145.693C281.496 145.808 281.199 145.856 280.815 145.837C279.97 145.779 279.231 145.741 278.597 145.722C277.964 145.702 277.522 145.693 277.272 145.693C276.831 145.693 276.37 145.702 275.89 145.722C275.429 145.741 274.959 145.77 274.479 145.808C274.479 146.48 274.45 147.2 274.392 147.968C274.335 148.736 274.258 149.542 274.162 150.387C275.045 150.33 276.044 150.291 277.157 150.272C278.271 150.234 279.26 150.214 280.124 150.214C280.508 150.214 280.767 150.253 280.901 150.33C281.055 150.406 281.132 150.608 281.132 150.934C281.132 151.242 281.045 151.587 280.872 151.971C280.719 152.336 280.508 152.653 280.239 152.922C280.124 153.037 279.999 153.133 279.864 153.21C279.73 153.267 279.548 153.286 279.317 153.267C278.492 153.229 277.551 153.2 276.495 153.181C275.458 153.162 274.546 153.162 273.759 153.181C273.682 153.622 273.624 154.026 273.586 154.39C273.548 154.755 273.528 155.082 273.528 155.37C273.528 156.426 273.797 157.165 274.335 157.587C274.872 158.01 275.756 158.221 276.984 158.221C277.733 158.221 278.453 158.154 279.144 158.019C279.855 157.885 280.575 157.635 281.304 157.27C281.573 157.117 281.775 157.04 281.909 157.04C282.12 157.04 282.322 157.194 282.514 157.501C282.725 157.789 282.831 158.106 282.831 158.451C282.831 158.874 282.668 159.277 282.341 159.661C282.034 160.026 281.621 160.342 281.103 160.611C280.508 160.88 279.797 161.082 278.972 161.216C278.146 161.37 277.292 161.446 276.408 161.446ZM290.069 161.446C288.764 161.446 287.756 161.302 287.045 161.014C286.335 160.726 285.845 160.323 285.576 159.805C285.308 159.286 285.173 158.672 285.173 157.962C285.173 157.616 285.202 157.232 285.26 156.81C285.317 156.368 285.384 155.869 285.461 155.312C285.807 153.2 285.98 151.328 285.98 149.696C285.98 148.621 285.932 147.709 285.836 146.96C285.759 146.192 285.509 145.462 285.087 144.771C285.01 144.656 284.943 144.541 284.885 144.426C284.828 144.291 284.799 144.186 284.799 144.109C284.799 143.878 284.933 143.638 285.202 143.389C285.471 143.139 285.797 142.928 286.181 142.755C286.565 142.582 286.93 142.496 287.276 142.496C287.928 142.496 288.332 142.755 288.485 143.274C288.658 143.792 288.744 144.531 288.744 145.491C288.744 145.856 288.706 146.442 288.629 147.248C288.552 148.035 288.437 149.043 288.284 150.272C288.13 151.462 288.015 152.49 287.938 153.354C287.861 154.218 287.823 154.909 287.823 155.427C287.823 156.195 287.909 156.781 288.082 157.184C288.274 157.568 288.581 157.837 289.004 157.99C289.426 158.144 290.021 158.221 290.789 158.221C291.615 158.221 292.402 158.154 293.151 158.019C293.9 157.866 294.629 157.635 295.34 157.328C295.436 157.29 295.522 157.261 295.599 157.242C295.676 157.222 295.743 157.213 295.8 157.213C295.973 157.213 296.136 157.318 296.29 157.53C296.444 157.741 296.52 158.038 296.52 158.422C296.52 159.267 296.06 159.93 295.138 160.41C293.909 161.101 292.22 161.446 290.069 161.446ZM303.485 161.446C302.179 161.446 301.171 161.302 300.461 161.014C299.75 160.726 299.261 160.323 298.992 159.805C298.723 159.286 298.589 158.672 298.589 157.962C298.589 157.616 298.618 157.232 298.675 156.81C298.733 156.368 298.8 155.869 298.877 155.312C299.222 153.2 299.395 151.328 299.395 149.696C299.395 148.621 299.347 147.709 299.251 146.96C299.174 146.192 298.925 145.462 298.502 144.771C298.426 144.656 298.358 144.541 298.301 144.426C298.243 144.291 298.214 144.186 298.214 144.109C298.214 143.878 298.349 143.638 298.618 143.389C298.886 143.139 299.213 142.928 299.597 142.755C299.981 142.582 300.346 142.496 300.691 142.496C301.344 142.496 301.747 142.755 301.901 143.274C302.074 143.792 302.16 144.531 302.16 145.491C302.16 145.856 302.122 146.442 302.045 147.248C301.968 148.035 301.853 149.043 301.699 150.272C301.546 151.462 301.43 152.49 301.354 153.354C301.277 154.218 301.238 154.909 301.238 155.427C301.238 156.195 301.325 156.781 301.498 157.184C301.69 157.568 301.997 157.837 302.419 157.99C302.842 158.144 303.437 158.221 304.205 158.221C305.03 158.221 305.818 158.154 306.566 158.019C307.315 157.866 308.045 157.635 308.755 157.328C308.851 157.29 308.938 157.261 309.014 157.242C309.091 157.222 309.158 157.213 309.216 157.213C309.389 157.213 309.552 157.318 309.706 157.53C309.859 157.741 309.936 158.038 309.936 158.422C309.936 159.267 309.475 159.93 308.554 160.41C307.325 161.101 305.635 161.446 303.485 161.446Z" fill="white"/>
</svg>
