<svg width="336" height="522" viewBox="0 0 336 522" fill="none" xmlns="http://www.w3.org/2000/svg">
<rect x="5" y="5" width="252" height="372.595" stroke="#2F2F2F" stroke-width="10"/>
<path d="M0 0L188.5 97.6276V479.783L0 386.113V0Z" fill="#2F2F2F"/>
<rect x="216" y="155.677" width="120" height="15.8315" fill="#464646"/>
<path d="M237.824 194.167C238.522 195.097 237.109 196.132 236.198 195.358L200.762 165.26C200.341 164.903 200.331 164.311 200.739 163.939L235.322 132.442C236.2 131.642 237.643 132.61 236.996 133.565L216.143 164.344C215.934 164.652 215.944 165.038 216.168 165.336L237.824 194.167Z" fill="#464646"/>
<ellipse cx="170" cy="270.015" rx="10" ry="8.79529" fill="#464646"/>
<rect width="38.7031" height="5.32865" transform="matrix(0.973336 0.229385 -0.291427 0.956593 133.553 258.581)" fill="#3D3D3D"/>
<path d="M233.699 276.87H232.979L231.66 274.849C231.109 275.575 230.441 276.155 229.656 276.589C228.871 277.011 227.998 277.222 227.037 277.222H225.719C224.863 277.222 224.055 277.064 223.293 276.747C222.543 276.419 221.887 275.974 221.324 275.411C220.762 274.849 220.316 274.193 219.988 273.443C219.672 272.693 219.514 271.89 219.514 271.034V257.499C219.514 256.644 219.672 255.841 219.988 255.091C220.316 254.341 220.762 253.685 221.324 253.122C221.887 252.56 222.543 252.12 223.293 251.804C224.055 251.476 224.863 251.312 225.719 251.312H227.512C228.367 251.312 229.17 251.476 229.92 251.804C230.67 252.12 231.326 252.56 231.889 253.122C232.451 253.685 232.891 254.341 233.207 255.091C233.535 255.841 233.699 256.644 233.699 257.499V258.519L231.432 258.87V257.499C231.432 256.937 231.326 256.415 231.115 255.935C230.904 255.443 230.617 255.015 230.254 254.651C229.891 254.288 229.463 254.001 228.971 253.79C228.49 253.579 227.969 253.474 227.406 253.474H225.824C225.262 253.474 224.734 253.579 224.242 253.79C223.762 254.001 223.334 254.288 222.959 254.651C222.596 255.015 222.309 255.443 222.098 255.935C221.887 256.415 221.781 256.937 221.781 257.499V271.034C221.781 271.597 221.887 272.124 222.098 272.616C222.309 273.097 222.596 273.525 222.959 273.9C223.334 274.263 223.762 274.55 224.242 274.761C224.734 274.972 225.262 275.077 225.824 275.077H227.406C227.969 275.077 228.49 274.972 228.971 274.761C229.463 274.55 229.891 274.263 230.254 273.9C230.617 273.525 230.904 273.097 231.115 272.616C231.326 272.124 231.432 271.597 231.432 271.034V265.778H227.406V263.616H233.699V276.87ZM239.113 276.87V251.663H253.299V253.825H241.381V263.194H251.031V265.357H241.381V274.708H253.299V276.87H239.113ZM263.758 253.825V276.87H261.49V253.825H255.479V251.663H269.77V253.825H263.758ZM281.688 276.87V251.663H283.955V276.87H281.688ZM302.729 276.87L292.217 258.519L292.006 257.429V276.87H289.738V251.663H290.916L301.428 270.032L301.656 271.105V251.663H303.924V276.87H302.729Z" fill="#696969"/>
</svg>
