<svg width="439" height="603" viewBox="0 0 439 603" fill="none" xmlns="http://www.w3.org/2000/svg">
<path d="M3.10227 37.136C1.61713 19.358 18.5677 5.70833 35.62 10.9508L342.117 105.178C360.917 110.958 374.638 127.147 377.257 146.641L433.652 566.349C435.991 583.757 420.251 598.158 403.119 594.284L78.874 520.968C57.4241 516.118 41.5953 497.92 39.7645 476.005L3.10227 37.136Z" fill="#302F2F"/>
<rect x="51.4199" y="58.3204" width="117.18" height="23.94" rx="11.97" transform="rotate(17 51.4199 58.3204)" fill="#444444"/>
<rect x="102.76" y="122.807" width="202.299" height="23.94" rx="11.97" transform="rotate(17 102.76 122.807)" fill="#444444"/>
<rect x="114.1" y="182.027" width="117.18" height="23.94" rx="11.97" transform="rotate(17 114.1 182.027)" fill="#505050" fill-opacity="0.26"/>
<rect x="62.4395" y="274.007" width="245.35" height="23.94" rx="11.97" transform="rotate(17 62.4395 274.007)" fill="#3B3B3B"/>
<rect x="95.2002" y="449.147" width="305.241" height="23.94" rx="11.97" transform="rotate(17 95.2002 449.147)" fill="#444444"/>
<rect x="114.1" y="345.827" width="117.18" height="23.94" rx="11.97" transform="rotate(17 114.1 345.827)" fill="#363535"/>
<rect x="250.18" y="435.287" width="117.18" height="23.94" rx="11.97" transform="rotate(17 250.18 435.287)" fill="#464646"/>
<rect x="257.74" y="226.127" width="84.223" height="23.94" rx="11.97" transform="rotate(17 257.74 226.127)" fill="#363535"/>
<rect x="232.54" y="102.647" width="126.866" height="23.94" rx="11.97" transform="rotate(17 232.54 102.647)" fill="#3D3D3D"/>
</svg>
